<mxfile host="app.diagrams.net" modified="2024-01-25T20:44:41.361Z" agent="Mozilla/5.0 (Windows NT 10.0; Win64; x64) AppleWebKit/537.36 (KHTML, like Gecko) Chrome/120.0.0.0 Safari/537.36 OPR/106.0.0.0" etag="V3yqwFiC8pTygOeKC6Gn" version="23.0.1" type="google">
  <diagram name="Page-1" id="Nm0wB5GRYABzWA0_Peoi">
    <mxGraphModel grid="1" page="1" gridSize="10" guides="1" tooltips="1" connect="1" arrows="1" fold="1" pageScale="1" pageWidth="850" pageHeight="1100" math="0" shadow="0">
      <root>
        <mxCell id="0" />
        <mxCell id="1" parent="0" />
        <mxCell id="WLsBl7eiwnNzBtkyb5_0-24" value="" style="rounded=0;whiteSpace=wrap;html=1;" vertex="1" parent="1">
          <mxGeometry x="200" y="440" width="560" height="520" as="geometry" />
        </mxCell>
        <mxCell id="WLsBl7eiwnNzBtkyb5_0-3" value=":CanteenStaff" style="whiteSpace=wrap;html=1;aspect=fixed;" vertex="1" parent="1">
          <mxGeometry x="560" y="800" width="80" height="80" as="geometry" />
        </mxCell>
        <mxCell id="WLsBl7eiwnNzBtkyb5_0-4" value=":ActionStaff" style="whiteSpace=wrap;html=1;aspect=fixed;" vertex="1" parent="1">
          <mxGeometry x="280" y="850" width="80" height="80" as="geometry" />
        </mxCell>
        <mxCell id="WLsBl7eiwnNzBtkyb5_0-10" style="edgeStyle=orthogonalEdgeStyle;rounded=0;orthogonalLoop=1;jettySize=auto;html=1;exitX=0;exitY=0.75;exitDx=0;exitDy=0;entryX=0.25;entryY=0;entryDx=0;entryDy=0;" edge="1" parent="1" source="WLsBl7eiwnNzBtkyb5_0-5" target="WLsBl7eiwnNzBtkyb5_0-4">
          <mxGeometry relative="1" as="geometry" />
        </mxCell>
        <mxCell id="WLsBl7eiwnNzBtkyb5_0-11" style="edgeStyle=orthogonalEdgeStyle;rounded=0;orthogonalLoop=1;jettySize=auto;html=1;exitX=1;exitY=0.25;exitDx=0;exitDy=0;entryX=0.25;entryY=0;entryDx=0;entryDy=0;" edge="1" parent="1" source="WLsBl7eiwnNzBtkyb5_0-5" target="WLsBl7eiwnNzBtkyb5_0-3">
          <mxGeometry relative="1" as="geometry" />
        </mxCell>
        <mxCell id="WLsBl7eiwnNzBtkyb5_0-5" value=":CanteenStaff" style="whiteSpace=wrap;html=1;aspect=fixed;" vertex="1" parent="1">
          <mxGeometry x="345" y="720" width="80" height="80" as="geometry" />
        </mxCell>
        <mxCell id="WLsBl7eiwnNzBtkyb5_0-9" style="edgeStyle=orthogonalEdgeStyle;rounded=0;orthogonalLoop=1;jettySize=auto;html=1;exitX=0;exitY=0.75;exitDx=0;exitDy=0;entryX=0.25;entryY=0;entryDx=0;entryDy=0;" edge="1" parent="1" source="WLsBl7eiwnNzBtkyb5_0-6" target="WLsBl7eiwnNzBtkyb5_0-5">
          <mxGeometry relative="1" as="geometry" />
        </mxCell>
        <mxCell id="WLsBl7eiwnNzBtkyb5_0-6" value=":Feedback" style="whiteSpace=wrap;html=1;aspect=fixed;" vertex="1" parent="1">
          <mxGeometry x="425" y="600" width="80" height="80" as="geometry" />
        </mxCell>
        <mxCell id="WLsBl7eiwnNzBtkyb5_0-8" style="edgeStyle=orthogonalEdgeStyle;rounded=0;orthogonalLoop=1;jettySize=auto;html=1;exitX=0;exitY=0.75;exitDx=0;exitDy=0;entryX=0.25;entryY=0;entryDx=0;entryDy=0;" edge="1" parent="1" source="WLsBl7eiwnNzBtkyb5_0-7" target="WLsBl7eiwnNzBtkyb5_0-6">
          <mxGeometry relative="1" as="geometry" />
        </mxCell>
        <mxCell id="WLsBl7eiwnNzBtkyb5_0-7" value=":User" style="whiteSpace=wrap;html=1;aspect=fixed;" vertex="1" parent="1">
          <mxGeometry x="520" y="480" width="80" height="80" as="geometry" />
        </mxCell>
        <mxCell id="WLsBl7eiwnNzBtkyb5_0-12" style="edgeStyle=orthogonalEdgeStyle;rounded=0;orthogonalLoop=1;jettySize=auto;html=1;exitX=1;exitY=0.25;exitDx=0;exitDy=0;entryX=1;entryY=0.75;entryDx=0;entryDy=0;dashed=1;dashPattern=8 8;" edge="1" parent="1" source="WLsBl7eiwnNzBtkyb5_0-3" target="WLsBl7eiwnNzBtkyb5_0-7">
          <mxGeometry relative="1" as="geometry">
            <Array as="points">
              <mxPoint x="680" y="820" />
              <mxPoint x="680" y="540" />
            </Array>
            <mxPoint x="660" y="800" as="sourcePoint" />
            <mxPoint x="660" y="720" as="targetPoint" />
          </mxGeometry>
        </mxCell>
        <mxCell id="WLsBl7eiwnNzBtkyb5_0-14" style="edgeStyle=orthogonalEdgeStyle;rounded=0;orthogonalLoop=1;jettySize=auto;html=1;exitX=1;exitY=0.5;exitDx=0;exitDy=0;entryX=1;entryY=0.5;entryDx=0;entryDy=0;dashed=1;dashPattern=8 8;" edge="1" parent="1" source="WLsBl7eiwnNzBtkyb5_0-4" target="WLsBl7eiwnNzBtkyb5_0-5">
          <mxGeometry relative="1" as="geometry">
            <Array as="points">
              <mxPoint x="470" y="890" />
              <mxPoint x="470" y="760" />
            </Array>
            <mxPoint x="479.97" y="1040" as="sourcePoint" />
            <mxPoint x="439.97" y="760" as="targetPoint" />
          </mxGeometry>
        </mxCell>
        <mxCell id="WLsBl7eiwnNzBtkyb5_0-15" value="&lt;font style=&quot;font-size: 10px;&quot;&gt;submitFeedback(feedbackDetails)&lt;/font&gt;" style="text;html=1;align=center;verticalAlign=middle;resizable=0;points=[];autosize=1;strokeColor=none;fillColor=none;" vertex="1" parent="1">
          <mxGeometry x="350" y="520" width="170" height="30" as="geometry" />
        </mxCell>
        <mxCell id="WLsBl7eiwnNzBtkyb5_0-17" value="&lt;font style=&quot;font-size: 10px;&quot;&gt;reviewFeedback()&lt;/font&gt;" style="text;html=1;align=center;verticalAlign=middle;resizable=0;points=[];autosize=1;strokeColor=none;fillColor=none;" vertex="1" parent="1">
          <mxGeometry x="325" y="640" width="100" height="30" as="geometry" />
        </mxCell>
        <mxCell id="WLsBl7eiwnNzBtkyb5_0-18" value="&lt;span style=&quot;font-size: 10px;&quot;&gt;takeAction()&lt;/span&gt;" style="text;html=1;align=center;verticalAlign=middle;resizable=0;points=[];autosize=1;strokeColor=none;fillColor=none;" vertex="1" parent="1">
          <mxGeometry x="265" y="750" width="80" height="30" as="geometry" />
        </mxCell>
        <mxCell id="WLsBl7eiwnNzBtkyb5_0-20" value="&lt;span style=&quot;font-size: 10px;&quot;&gt;actionConfirmed()&lt;/span&gt;" style="text;html=1;align=center;verticalAlign=middle;resizable=0;points=[];autosize=1;strokeColor=none;fillColor=none;" vertex="1" parent="1">
          <mxGeometry x="393.5" y="890" width="100" height="30" as="geometry" />
        </mxCell>
        <mxCell id="WLsBl7eiwnNzBtkyb5_0-22" value="&lt;span style=&quot;font-size: 10px;&quot;&gt;formulateResponse()&lt;/span&gt;" style="text;html=1;align=center;verticalAlign=middle;resizable=0;points=[];autosize=1;strokeColor=none;fillColor=none;" vertex="1" parent="1">
          <mxGeometry x="470" y="710" width="120" height="30" as="geometry" />
        </mxCell>
        <mxCell id="WLsBl7eiwnNzBtkyb5_0-23" value="&lt;span style=&quot;font-size: 10px;&quot;&gt;sendResponse()&lt;/span&gt;" style="text;html=1;align=center;verticalAlign=middle;resizable=0;points=[];autosize=1;strokeColor=none;fillColor=none;rotation=90;" vertex="1" parent="1">
          <mxGeometry x="650" y="660" width="100" height="30" as="geometry" />
        </mxCell>
      </root>
    </mxGraphModel>
  </diagram>
</mxfile>
